<?xml version="1.0" encoding="UTF-8"?>
<svg id="Layer_1" data-name="Layer 1" xmlns="http://www.w3.org/2000/svg" viewBox="0 0 512 512">
  <defs>
    <style>
      .cls-1 {
        fill: #0a4d8e;
        stroke-width: 0px;
      }
    </style>
  </defs>
  <path class="cls-1" d="m455.45,210.81c3.7.18,7.34.27,10.96.56,21.2,1.71,36.73,15.99,37.87,37.24,1.08,20.26.92,40.68-.31,60.94-1.24,20.34-19.69,36.13-40.17,36.43-2.75.04-5.51,0-7.42,0,.42,9.29,1.09,17.97,1.16,26.66.17,19.98.1,39.97.04,59.96-.08,24.87-16.83,41.69-41.56,41.7-122.02.02-244.04.02-366.05,0-25.53,0-42.93-17.37-42.94-42.9-.04-101.86-.03-203.71,0-305.57,0-26.78,17.79-44.5,44.48-44.51,59.43,0,118.86.04,178.29-.11,3.69,0,7.67-.91,11.02-2.45,27.82-12.81,55.51-25.89,83.26-38.85,9.38-4.38,15.18-2.34,19.67,6.93,4.96,10.24,9.95,20.47,14.71,30.8,1.29,2.81,2.96,3.75,6,3.73,17-.13,34.01-.09,51.02-.05,23.91.05,41.73,17.24,42.03,41.13.31,24.89.16,49.79-.03,74.68-.03,4.31-1.25,8.61-2.04,13.69ZM181.65,107.43c-.06-.42-.13-.84-.19-1.26-1.49-.1-2.98-.29-4.47-.29-42.43-.02-84.86-.04-127.3,0-11.62.01-18.13,6.66-18.14,18.33-.01,102.92-.01,205.85,0,308.77,0,11.43,6.84,18.5,18.18,18.5,122.21.04,244.42.04,366.63,0,11.26,0,18.31-7.14,18.36-18.51.1-22.79.09-45.59,0-68.38-.05-11.73-7.03-18.55-18.73-18.58-16.31-.03-32.61.13-48.92-.07-20.66-.26-37.95-17.1-38.34-37.79-.38-20.68-.44-41.39.06-62.06.34-13.98,7.09-24.41,20.5-29.61,4.36-1.69,9.01-3.26,13.63-3.6,18.17-1.32,36.37-2.16,54.56-3.11,11.42-.6,17.16-6.45,17.24-17.95.07-10.34.02-20.69.02-31.03q0-8.02-7.94-8.03c-117.48,0-234.95,0-352.43-.01-2.63,0-5.28.07-7.88-.26-5.16-.66-8.77-3.58-10.22-8.57-1.45-4.97.77-10.65,5.46-13.09,2.66-1.38,5.96-2.11,8.97-2.14,20.34-.18,40.68-.08,61.02-.12,1.9,0,4.04.19,5.68-.56,14.79-6.75,29.5-13.69,44.23-20.58Zm234.4,128.06c-15.77,0-31.53-.06-47.3.02-9.68.05-15.63,4.96-15.86,14.43-.44,18.56-.45,37.14,0,55.7.24,10.08,6.27,15.92,15.86,15.98,31.36.2,62.72.22,94.08,0,10.98-.08,17.37-7.13,17.39-18.11.04-16.64.02-33.29,0-49.93,0-12.15-5.79-18.04-17.93-18.08-15.42-.06-30.83-.01-46.25-.01Zm-220.58-108.35c.12.37.25.74.37,1.11h160.69c-10.6-21.19-20.86-41.7-31.21-62.4-43.77,20.66-86.81,40.98-129.86,61.29Zm176.55-21.01c3.94,7.4,7.28,13.89,10.89,20.23.62,1.09,2.43,2.12,3.7,2.14,14.86.15,29.73.16,44.59-.03,1.18-.01,3.16-1.56,3.39-2.68,1.77-8.61-4.85-19.11-13.36-19.47-16.03-.68-32.1-.19-49.2-.19Z"/>
  <path class="cls-1" d="m397.26,259.95c10.6-.05,18.64,7.8,18.81,18.34.16,10.51-8.41,19.25-18.78,19.15-10.23-.09-18.53-8.54-18.53-18.87,0-10.56,7.96-18.58,18.51-18.63Z"/>
</svg>