<svg width="13" height="21" viewBox="0 0 13 21" fill="none" xmlns="http://www.w3.org/2000/svg">
<path d="M10.8125 0.0898438C11.8281 0.0898438 12.6875 0.949219 12.6875 1.96484V18.2148C12.6875 19.2695 11.8281 20.0898 10.8125 20.0898H2.0625C1.00781 20.0898 0.1875 19.2695 0.1875 18.2148V1.96484C0.1875 0.949219 1.00781 0.0898438 2.0625 0.0898438H10.8125ZM6.4375 18.8398C7.10156 18.8398 7.6875 18.293 7.6875 17.5898C7.6875 16.9258 7.10156 16.3398 6.4375 16.3398C5.73438 16.3398 5.1875 16.9258 5.1875 17.5898C5.1875 18.293 5.73438 18.8398 6.4375 18.8398ZM10.8125 14.6211V2.43359C10.8125 2.19922 10.5781 1.96484 10.3438 1.96484H2.53125C2.25781 1.96484 2.0625 2.19922 2.0625 2.43359V14.6211C2.0625 14.8945 2.25781 15.0898 2.53125 15.0898H10.3438C10.5781 15.0898 10.8125 14.8945 10.8125 14.6211Z" fill="#4A5568"/>
</svg>
